<svg width="478" height="966" viewBox="0 0 478 966" fill="none" xmlns="http://www.w3.org/2000/svg">
<path d="M55.6367 0C64.8505 19.9431 73.2646 34.4697 88.0505 50.2081C104.035 67.2221 124.844 82.2927 144.079 94.4687C183.324 119.31 212.752 149.196 231.486 194.734C247.059 232.587 250.891 273.81 247.191 314.716C240.165 392.291 181.336 489.104 129.784 542.471C89.1333 584.549 59.093 544.865 38.7015 603.471C38.8925 656.146 36.7015 772.472 38.7015 820.972C38.9902 827.972 35.8033 840.439 41.2015 853.471C41.2015 853.471 66.6248 876.984 67.7478 882.819C68.5504 886.99 71.8223 891.022 72.4558 893.947C76.1288 905.516 79.7318 911.658 85.4448 922.092C78.8601 918.767 73.9904 914.235 68.9138 908.702C69.2239 921.303 77.3601 925.375 77.3814 937.657C77.0796 925.303 46.4141 921.986 44.0524 918.213C25.4892 889.079 25.9693 868.661 17.1571 834.638C-2.39332 759.157 -10.8493 652.714 22.6907 586.157C60.9071 510.307 151.593 497.664 190.584 423.042C211.667 382.686 217.676 339.621 205.767 294.352C189.869 233.927 152.424 188.438 102.287 157.765C109.054 164.264 115.531 171.106 121.698 178.269C160.128 222.749 193.326 284.084 191.664 346.605C172.941 328.652 150.759 315.293 129.161 301.824C86.5648 275.26 53.6689 240.114 37.8948 188.66C22.7374 139.218 28.9364 83.0073 43.4392 34.4643C46.4826 24.2768 51.1976 9.52808 55.6367 0Z" fill="#16A34A"/>
<path d="M185.427 541.715C233.468 538.213 316.681 545.8 357.809 575.043C370.606 584.142 374.868 604.905 362.628 616.202C329.447 646.824 266.3 652.873 223.684 655.304C174.023 656.835 91.8129 651.759 49.9949 619.539C43.9864 614.91 38.2191 606.314 37.9447 598.666C37.6876 591.496 40.525 583.42 45.7167 578.429C75.5292 549.792 147.384 543.687 185.427 541.715Z" fill="#003417"/>
<path d="M37.9331 734.542C74.192 771.042 155.385 778.72 204.58 779.596C246.278 780.337 335.882 770.344 366.167 739.484C367.006 738.639 367.808 737.757 368.573 736.851L368.561 776.779C368.604 792.822 371.892 816.297 357.858 827.564C315.94 861.21 251.984 864.235 200.379 865.263C151.394 864.706 82.4648 857.138 45.6677 821.961C44.3182 820.675 45.0009 820.828 43.1616 820.075C42.5529 816.714 38.7597 811.95 38.0157 807.162C36.9748 800.463 38.8191 785.474 37.2069 779.669C38.5093 775.42 37.919 741.474 37.9331 734.542Z" fill="#003417"/>
<path d="M37.9864 629.979C38.9532 630.885 40.2457 632.214 41.1789 633.071C102.087 688.773 314.035 689.44 368.665 632.257L368.837 681.419C368.855 691.43 370.043 705.421 366.32 714.483C364.697 717.349 362.689 719.97 360.35 722.29C331.676 751.148 248.617 759.996 207.843 759.647C161.548 759.249 83.8706 753.616 46.7772 720.643C43.8767 718.065 39.8539 712.144 39.0983 708.452C37.1156 698.759 37.8222 685.834 37.848 675.78L37.9864 629.979Z" fill="#003417"/>
<path d="M37.9343 836.669C43.862 843.239 49.5938 848.658 57.5085 852.797C65.7256 859.306 79.8502 864.817 89.9031 868.221C141.384 885.635 201.99 888.194 255.683 882.653C288.631 879.249 347.375 866.017 368.537 839.841L368.573 876.922C368.604 887.221 369.461 900.587 366.773 910.421C365.322 915.717 360.766 922.838 356.615 926.58C320.391 959.252 245.359 965.884 198.8 965.253C153.517 964.647 83.3128 954.954 49.1475 922.532C34.075 908.229 39.3793 895.94 37.4475 880.712C38.1413 866.739 37.5773 851.021 37.9343 836.669Z" fill="#003417"/>
<path d="M320.929 297.064C358.386 292.673 379.855 313.694 410.726 326.721C431.584 335.682 454.376 339.746 477.202 338.574C476.27 339.805 475.273 340.985 474.205 342.109C425.309 394.06 337.881 429.475 275.992 375.586C263.245 366.094 259.71 361.257 242.201 367.479C247.954 359.792 252.312 356.035 261.42 351.938C300.795 334.218 344.74 342.456 383.902 356.141C374.255 349.378 348.493 338.185 336.792 334.521C310.067 326.152 281.331 326.244 255.88 338.408C259.655 332.127 261.077 329.664 265.914 323.955C278.449 309.149 301.154 298.557 320.929 297.064Z" fill="#16A34A" fill-opacity="0.5"/>
</svg>
